<svg width="22" height="22" viewBox="0 0 22 22" fill="none" xmlns="http://www.w3.org/2000/svg">
<path d="M14.6747 19.641C14.9293 19.3864 15.0723 19.0411 15.0723 18.6811C15.0723 18.3211 14.9293 17.9758 14.6747 17.7212L7.95383 11.0003L14.6747 4.27936C14.9221 4.02328 15.0589 3.68031 15.0558 3.32431C15.0527 2.96831 14.9099 2.62777 14.6582 2.37603C14.4065 2.12429 14.0659 1.98149 13.7099 1.9784C13.3539 1.97531 13.0109 2.11216 12.7549 2.35949L5.07402 10.0403C4.81948 10.2949 4.67649 10.6402 4.67649 11.0003C4.67649 11.3603 4.81948 11.7056 5.07402 11.9602L12.7549 19.641C13.0095 19.8956 13.3548 20.0386 13.7148 20.0386C14.0748 20.0386 14.4201 19.8956 14.6747 19.641Z" fill="black"/>
</svg>
