<svg width="22" height="22" viewBox="0 0 22 22" fill="none" xmlns="http://www.w3.org/2000/svg">
<path d="M7.32527 19.641C7.07073 19.3864 6.92773 19.0411 6.92773 18.6811C6.92773 18.3211 7.07073 17.9758 7.32527 17.7212L14.0462 11.0003L7.32527 4.27936C7.07794 4.02328 6.94109 3.68031 6.94418 3.32431C6.94727 2.96831 7.09007 2.62777 7.34181 2.37603C7.59355 2.12429 7.93409 1.98149 8.29009 1.9784C8.64609 1.97531 8.98906 2.11216 9.24514 2.35949L16.926 10.0403C17.1805 10.2949 17.3235 10.6402 17.3235 11.0003C17.3235 11.3603 17.1805 11.7056 16.926 11.9602L9.24514 19.641C8.99052 19.8956 8.64523 20.0386 8.2852 20.0386C7.92517 20.0386 7.57989 19.8956 7.32527 19.641Z" fill="black"/>
</svg>
