<svg width="19" height="19" viewBox="0 0 19 19" fill="none" xmlns="http://www.w3.org/2000/svg">
<path d="M9.18338 0.534689C9.32917 0.0660561 9.99245 0.0660553 10.1382 0.534688L11.916 6.24934C11.9811 6.45838 12.1745 6.60081 12.3935 6.60081H18.1912C18.6703 6.60081 18.8751 7.20952 18.4935 7.49912L13.7661 11.0864C13.5984 11.2136 13.5284 11.4322 13.5909 11.6332L15.3877 17.4089C15.5322 17.8734 14.9955 18.2498 14.608 17.9557L9.96306 14.431C9.78437 14.2954 9.53725 14.2954 9.35856 14.431L4.71361 17.9557C4.32608 18.2498 3.78942 17.8734 3.93393 17.4089L5.7307 11.6332C5.79323 11.4322 5.72319 11.2136 5.55552 11.0864L0.82817 7.49912C0.446529 7.20952 0.651335 6.60081 1.13042 6.60081H6.92816C7.14709 6.60081 7.34056 6.45839 7.40559 6.24934L9.18338 0.534689Z" fill="#FCD209"/>
</svg>
